<svg width="18" height="18" viewBox="0 0 18 18" fill="none" xmlns="http://www.w3.org/2000/svg">
<path d="M5.66357 13.9997C6.58024 13.9997 7.33057 14.75 7.33057 15.6667C7.33057 16.5833 6.58024 17.3337 5.66357 17.3337C4.74691 17.3337 4.00537 16.5833 4.00537 15.6667C4.00537 14.75 4.74691 13.9997 5.66357 13.9997ZM13.9966 13.9997C14.9132 13.9997 15.6636 14.75 15.6636 15.6667C15.6636 16.5833 14.9132 17.3337 13.9966 17.3337C13.0801 17.3335 12.3384 16.5832 12.3384 15.6667C12.3384 14.7501 13.0801 13.9999 13.9966 13.9997ZM2.86377 0.666668C3.18027 0.666743 3.48041 0.849815 3.61377 1.14128L4.17236 2.33366H16.5054C17.1386 2.33375 17.5383 3.0171 17.23 3.56706L14.2466 8.97526C13.9632 9.49174 13.4134 9.83366 12.7886 9.83366H6.58057L5.66357 11.4997H14.8306C15.2888 11.4999 15.6636 11.8754 15.6636 12.3337C15.6634 12.7917 15.2886 13.1665 14.8306 13.1667H5.66357C4.39697 13.1667 3.5974 11.8087 4.20557 10.6921L5.33057 8.65788L2.33057 2.33366H1.49658C1.0384 2.33348 0.663574 1.9579 0.663574 1.49968C0.663752 1.0416 1.03851 0.666845 1.49658 0.666668H2.86377Z" fill="#FB7A79"/>
</svg>
