<svg width="145" height="114" viewBox="0 0 145 114" fill="none" xmlns="http://www.w3.org/2000/svg">
<mask id="mask0_692_3593" style="mask-type:alpha" maskUnits="userSpaceOnUse" x="0" y="0" width="148" height="122">
<rect x="0.421509" y="0.8479" width="147.57" height="120.768" fill="white"/>
</mask>
<g mask="url(#mask0_692_3593)">
<path d="M92.6526 101.557C92.6526 112.674 84.3939 121.685 74.2064 121.685V101.557H92.6526Z" fill="#3699FF"/>
<path d="M129.545 81.4293C119.358 81.4293 111.099 72.4176 111.099 61.3013H129.545V81.4293Z" fill="#D6DA34"/>
<path d="M74.3398 125.981C61.9599 125.981 51.9242 115.037 51.9242 101.536H74.3398V125.981Z" fill="#6ED47C"/>
<path d="M74.2064 111.83C69.0071 111.83 64.7924 107.231 64.7924 101.557H74.2064V111.83Z" fill="#D5E155"/>
<path d="M147.715 11.0125L138.491 11.0125C133.398 11.0125 129.268 15.5183 129.268 21.0765H138.491C143.585 21.0765 147.715 16.5706 147.715 11.0125Z" fill="#6ED47C"/>
<path d="M92.6526 91.4934H101.829C106.949 91.4934 111.099 95.9993 111.099 101.557H101.922C96.8027 101.557 92.6526 97.0515 92.6526 91.4934Z" fill="#6ED47C"/>
<path d="M111.099 121.685V101.557C111.099 90.4411 119.358 81.4294 129.545 81.4294V101.557C129.545 112.674 121.286 121.685 111.099 121.685Z" fill="#6ED47C"/>
<path d="M120.322 101.488V91.5093C120.322 85.9424 124.451 81.4294 129.545 81.4294V91.4081C129.545 96.975 125.416 101.488 120.322 101.488Z" fill="#2D3652"/>
<path d="M105.629 81.3599C105.629 78.0249 108.106 75.3215 111.162 75.3215C114.219 75.3215 116.696 78.0249 116.696 81.3599C116.696 84.695 114.219 87.3984 111.162 87.3984C108.106 87.3984 105.629 84.695 105.629 81.3599Z" fill="#FF743C"/>
<path d="M108.427 81.3947C108.427 79.7273 109.666 78.3755 111.194 78.3755C112.722 78.3755 113.961 79.7273 113.961 81.3947C113.961 83.0621 112.722 84.4139 111.194 84.4139C109.666 84.4139 108.427 83.0621 108.427 81.3947Z" fill="#FFC700"/>
<path d="M129.545 51.168C129.545 45.6099 125.416 41.104 120.322 41.104C115.228 41.104 111.099 45.6099 111.099 51.168C111.099 56.7262 115.228 61.232 120.322 61.232H129.545V51.168Z" fill="#FF743C"/>
<path d="M129.312 20.9275V28.2027C129.312 32.2206 126.325 35.4779 122.64 35.4779V28.2027C122.64 24.1847 125.627 20.9275 129.312 20.9275Z" fill="#A04AE3"/>
<path d="M129.545 56.0262C129.545 53.1514 127.409 50.8208 124.774 50.8208C122.14 50.8208 120.004 53.1514 120.004 56.0262C120.004 58.9013 122.14 61.2318 124.774 61.2318H129.545V56.0262Z" fill="#FFC700"/>
<path d="M92.6526 111.621C92.6526 106.063 96.782 101.557 101.876 101.557C106.969 101.557 111.099 106.063 111.099 111.621C111.099 117.18 106.969 121.685 101.876 121.685C96.782 121.685 92.6526 117.18 92.6526 111.621Z" fill="#FF743C"/>
<path d="M96.7871 111.517C96.7871 108.432 99.0797 105.93 101.908 105.93C104.735 105.93 107.028 108.432 107.028 111.517C107.028 114.603 104.735 117.105 101.908 117.105C99.0797 117.105 96.7871 114.603 96.7871 111.517Z" fill="#2D3652"/>
<path d="M129.482 41.1038C129.482 29.9875 137.74 20.9758 147.928 20.9758V41.1038H129.482Z" fill="#FF743C"/>
<path d="M147.928 81.3599C137.74 81.3599 129.482 72.3482 129.482 61.2319L147.928 61.2319V81.3599Z" fill="#3699FF"/>
<path d="M129.482 61.232C129.482 50.1155 137.74 41.104 147.928 41.104V61.232H129.482Z" fill="#6ED47C"/>
<path d="M138.514 61.2319C138.514 55.5587 142.728 50.9597 147.928 50.9597V61.2319H138.514Z" fill="#D5E155"/>
<path d="M129.545 111.653C129.545 117.211 133.674 121.717 138.768 121.717C143.862 121.717 147.991 117.211 147.991 111.653C147.991 106.094 143.862 101.589 138.768 101.589H129.545V111.653Z" fill="#FFC700"/>
<path d="M129.545 106.794C129.545 109.669 131.681 112 134.316 112C136.95 112 139.086 109.669 139.086 106.794C139.086 103.919 136.95 101.588 134.316 101.588H129.545V106.794Z" fill="#FF743C"/>
<path d="M138.705 81.3599C143.798 81.3599 147.928 85.8657 147.928 91.4239C147.928 96.982 143.798 101.488 138.705 101.488C133.611 101.488 129.482 96.982 129.482 91.4239C129.482 85.8657 133.611 81.3599 138.705 81.3599Z" fill="#FF743C"/>
<path d="M138.8 85.8713C141.628 85.8713 143.92 88.3729 143.92 91.4586C143.92 94.5443 141.628 97.0458 138.8 97.0458C135.972 97.0458 133.68 94.5443 133.68 91.4586C133.68 88.3729 135.972 85.8713 138.8 85.8713Z" fill="#2D3652"/>
<path d="M66.0674 86.9861H79.41C86.7789 86.9861 92.7527 93.5006 92.7527 101.536H79.41C72.0412 101.536 66.0674 95.022 66.0674 86.9861Z" fill="#A04AE3"/>
<path d="M79.41 94.2612H86.0476C89.7507 94.2612 92.7527 97.5185 92.7527 101.536H86.1151C82.4119 101.536 79.41 98.2792 79.41 94.2612Z" fill="#6ED47C"/>
</g>
</svg>
